<?xml version="1.0" standalone="no"?>
<!DOCTYPE svg PUBLIC "-//W3C//DTD SVG 20010904//EN"
 "http://www.w3.org/TR/2001/REC-SVG-20010904/DTD/svg10.dtd">
<svg version="1.0" xmlns="http://www.w3.org/2000/svg"
 width="400.000000pt" height="400.000000pt" viewBox="0 0 400.000000 400.000000"
 preserveAspectRatio="xMidYMid meet">
<metadata>
Created by potrace 1.11, written by Peter Selinger 2001-2013
</metadata>
<g transform="translate(0.000000,400.000000) scale(0.100000,-0.100000)"
fill="#000000" stroke="none">
<path d="M1868 3786 c-18 -7 -51 -13 -72 -14 -22 -2 -44 -6 -49 -9 -5 -3 -22
-8 -36 -9 -42 -6 -54 -10 -93 -27 -21 -8 -50 -18 -66 -20 -16 -3 -38 -10 -49
-16 -11 -5 -31 -8 -43 -6 -27 5 -100 -33 -100 -52 0 -9 -14 -13 -45 -13 -25 0
-47 0 -50 0 -3 0 -25 -9 -49 -20 -24 -10 -47 -16 -50 -13 -3 3 -8 -2 -12 -11
-8 -21 -59 -49 -98 -54 -16 -2 -35 -10 -43 -18 -8 -8 -19 -12 -24 -9 -5 4 -15
3 -21 -2 -7 -4 -19 -8 -27 -9 -18 -3 -124 -74 -134 -90 -4 -7 -28 -26 -55 -42
-74 -46 -278 -257 -304 -314 -12 -26 -25 -48 -29 -48 -13 0 -99 -91 -99 -105
0 -7 -19 -33 -42 -57 -54 -55 -108 -123 -128 -158 -8 -15 -28 -49 -44 -75 -26
-43 -52 -136 -71 -255 -3 -19 -12 -64 -19 -100 -21 -97 -21 -706 0 -738 8 -12
12 -22 9 -22 -12 0 71 -132 115 -184 37 -44 126 -126 136 -126 3 0 25 -9 50
-20 37 -17 44 -25 41 -44 -1 -13 -8 -30 -14 -37 -18 -23 -26 -59 -12 -59 8 0
8 -4 1 -13 -7 -8 -6 -18 4 -31 7 -10 11 -23 8 -27 -3 -5 0 -9 5 -9 6 0 10 -3
9 -7 0 -5 1 -15 5 -23 13 -34 13 -45 1 -57 -15 -15 -8 -66 14 -108 26 -49 26
-86 -2 -123 -13 -19 -22 -40 -19 -47 6 -17 67 -65 82 -65 5 0 14 -6 18 -13 9
-15 40 -30 63 -31 18 -1 43 -23 58 -51 10 -19 62 -34 217 -61 17 -3 98 -19
180 -35 83 -16 166 -32 185 -35 19 -3 44 -8 55 -11 11 -3 29 -7 40 -8 11 -2
58 -10 103 -20 l83 -17 50 33 c54 34 98 91 103 130 2 22 23 69 62 142 9 15 17
50 20 78 4 43 17 86 57 179 5 14 11 30 11 35 1 6 13 23 29 39 15 16 27 33 27
38 0 10 81 5 99 -7 6 -3 11 -2 11 4 0 5 9 12 20 16 11 3 25 18 32 33 10 20 24
29 53 34 37 8 63 14 75 18 3 1 13 1 23 0 10 -1 25 4 34 12 10 8 18 9 20 3 2
-6 20 -10 40 -9 21 1 49 -4 63 -10 14 -8 57 -13 98 -12 63 1 76 -2 94 -21 19
-20 20 -27 11 -74 -11 -56 0 -103 31 -128 8 -7 26 -32 40 -55 37 -63 59 -71
195 -69 128 1 177 6 187 16 4 4 18 7 31 7 14 0 34 5 46 12 12 7 27 13 32 14 6
1 35 13 65 27 30 14 79 28 109 32 64 7 85 17 128 59 51 51 113 100 130 102 8
2 27 16 41 32 l27 30 63 -58 c34 -33 73 -62 85 -66 12 -4 24 -11 27 -15 4 -5
25 -11 48 -14 38 -5 43 -3 57 25 8 16 16 32 16 35 0 2 6 20 14 39 8 20 15 48
15 64 0 15 13 46 28 68 27 37 58 147 69 244 2 19 8 53 14 74 12 46 1 101 -39
186 -27 59 -40 183 -21 206 16 20 21 54 24 159 3 88 0 111 -25 185 -15 47 -31
99 -33 115 -5 28 -14 67 -21 90 -13 46 -69 159 -127 255 -23 40 -43 85 -44
101 -1 15 -7 35 -14 43 -7 9 -13 31 -13 50 0 38 -14 56 -88 115 -23 18 -55 56
-72 82 -31 50 -75 89 -101 89 -16 0 -34 37 -23 47 3 4 1 12 -4 19 -6 6 -10 16
-8 20 3 12 -50 117 -66 129 -7 6 -32 39 -55 75 -58 89 -119 142 -222 195 -49
25 -89 43 -89 40 0 -6 -172 55 -187 67 -7 6 -13 8 -13 5 0 -4 -29 5 -64 18
-35 13 -66 22 -69 19 -3 -3 -16 1 -29 9 -32 21 -134 54 -188 62 -66 10 -71 11
-120 20 -25 5 -54 9 -65 10 -11 1 -45 6 -75 12 -30 6 -62 12 -70 12 -8 0 -47
2 -87 4 -40 2 -87 -1 -105 -7z"/>
</g>
</svg>
